<mxfile host="Electron" agent="Mozilla/5.0 (Windows NT 10.0; Win64; x64) AppleWebKit/537.36 (KHTML, like Gecko) draw.io/28.0.6 Chrome/138.0.7204.100 Electron/37.2.3 Safari/537.36" version="28.0.6">
  <diagram name="Page-1" id="0rfWOfyjAOf733A-oJOd">
    <mxGraphModel dx="1426" dy="841" grid="1" gridSize="10" guides="1" tooltips="1" connect="1" arrows="1" fold="1" page="1" pageScale="1" pageWidth="827" pageHeight="1169" math="0" shadow="0">
      <root>
        <mxCell id="0" />
        <mxCell id="1" parent="0" />
        <mxCell id="B6tf1ZhUQxjnIPDWgsCj-48" value="" style="rounded=0;whiteSpace=wrap;html=1;strokeColor=none;" parent="1" vertex="1">
          <mxGeometry x="90" y="30" width="920" height="660" as="geometry" />
        </mxCell>
        <mxCell id="B6tf1ZhUQxjnIPDWgsCj-47" value="Client 2" style="rounded=0;whiteSpace=wrap;html=1;fillColor=#f5f5f5;fontColor=#333333;strokeColor=none;verticalAlign=top;fontSize=18;" parent="1" vertex="1">
          <mxGeometry x="660" y="40" width="340" height="640" as="geometry" />
        </mxCell>
        <mxCell id="B6tf1ZhUQxjnIPDWgsCj-46" value="Host" style="rounded=0;whiteSpace=wrap;html=1;fillColor=#f5f5f5;fontColor=#333333;strokeColor=none;verticalAlign=top;fontSize=18;" parent="1" vertex="1">
          <mxGeometry x="460" y="40" width="180" height="640" as="geometry" />
        </mxCell>
        <mxCell id="B6tf1ZhUQxjnIPDWgsCj-45" value="Client 1" style="rounded=0;whiteSpace=wrap;html=1;fillColor=#f5f5f5;fontColor=#333333;strokeColor=none;verticalAlign=top;fontSize=18;" parent="1" vertex="1">
          <mxGeometry x="100" y="40" width="340" height="640" as="geometry" />
        </mxCell>
        <mxCell id="uIkM0Dpdz_mQOi9VMkWr-1" value="Session Manager" style="shape=umlLifeline;perimeter=lifelinePerimeter;whiteSpace=wrap;html=1;container=1;dropTarget=0;collapsible=0;recursiveResize=0;outlineConnect=0;portConstraint=eastwest;newEdgeStyle={&quot;curved&quot;:0,&quot;rounded&quot;:0};fontSize=18;size=50;fillColor=#fff2cc;strokeColor=#d6b656;" parent="1" vertex="1">
          <mxGeometry x="120" y="80" width="140" height="590" as="geometry" />
        </mxCell>
        <mxCell id="uIkM0Dpdz_mQOi9VMkWr-31" value="Session Manager" style="shape=umlLifeline;perimeter=lifelinePerimeter;whiteSpace=wrap;html=1;container=1;dropTarget=0;collapsible=0;recursiveResize=0;outlineConnect=0;portConstraint=eastwest;newEdgeStyle={&quot;curved&quot;:0,&quot;rounded&quot;:0};fontSize=18;size=50;fillColor=#fff2cc;strokeColor=#d6b656;" parent="1" vertex="1">
          <mxGeometry x="480" y="80" width="140" height="590" as="geometry" />
        </mxCell>
        <mxCell id="uIkM0Dpdz_mQOi9VMkWr-32" value="Tracking Manager" style="shape=umlLifeline;perimeter=lifelinePerimeter;whiteSpace=wrap;html=1;container=1;dropTarget=0;collapsible=0;recursiveResize=0;outlineConnect=0;portConstraint=eastwest;newEdgeStyle={&quot;curved&quot;:0,&quot;rounded&quot;:0};fontSize=18;size=50;fillColor=#fff2cc;strokeColor=#d6b656;" parent="1" vertex="1">
          <mxGeometry x="280" y="80" width="140" height="590" as="geometry" />
        </mxCell>
        <mxCell id="uIkM0Dpdz_mQOi9VMkWr-46" value="" style="endArrow=classic;html=1;rounded=0;snapToPoint=0;" parent="1" target="uIkM0Dpdz_mQOi9VMkWr-1" edge="1">
          <mxGeometry relative="1" as="geometry">
            <mxPoint x="189.5" y="160" as="sourcePoint" />
            <mxPoint x="476" y="160" as="targetPoint" />
            <Array as="points">
              <mxPoint x="250" y="160" />
              <mxPoint x="250" y="180" />
              <mxPoint x="250" y="200" />
            </Array>
          </mxGeometry>
        </mxCell>
        <mxCell id="uIkM0Dpdz_mQOi9VMkWr-47" value="Create an&lt;div&gt;Annotation&lt;/div&gt;" style="edgeLabel;resizable=0;html=1;;align=center;verticalAlign=middle;fontSize=18;labelBackgroundColor=none;" parent="uIkM0Dpdz_mQOi9VMkWr-46" connectable="0" vertex="1">
          <mxGeometry relative="1" as="geometry">
            <mxPoint x="50" as="offset" />
          </mxGeometry>
        </mxCell>
        <mxCell id="B6tf1ZhUQxjnIPDWgsCj-1" value="Tracking Manager" style="shape=umlLifeline;perimeter=lifelinePerimeter;whiteSpace=wrap;html=1;container=1;dropTarget=0;collapsible=0;recursiveResize=0;outlineConnect=0;portConstraint=eastwest;newEdgeStyle={&quot;curved&quot;:0,&quot;rounded&quot;:0};fontSize=18;size=50;fillColor=#fff2cc;strokeColor=#d6b656;" parent="1" vertex="1">
          <mxGeometry x="840" y="80" width="140" height="590" as="geometry" />
        </mxCell>
        <mxCell id="B6tf1ZhUQxjnIPDWgsCj-2" value="Session Manager" style="shape=umlLifeline;perimeter=lifelinePerimeter;whiteSpace=wrap;html=1;container=1;dropTarget=0;collapsible=0;recursiveResize=0;outlineConnect=0;portConstraint=eastwest;newEdgeStyle={&quot;curved&quot;:0,&quot;rounded&quot;:0};fontSize=18;size=50;fillColor=#fff2cc;strokeColor=#d6b656;" parent="1" vertex="1">
          <mxGeometry x="680" y="80" width="140" height="590" as="geometry" />
        </mxCell>
        <mxCell id="B6tf1ZhUQxjnIPDWgsCj-7" value="" style="endArrow=classic;html=1;rounded=0;snapToPoint=0;" parent="1" edge="1">
          <mxGeometry relative="1" as="geometry">
            <mxPoint x="190" y="241" as="sourcePoint" />
            <mxPoint x="350" y="240" as="targetPoint" />
          </mxGeometry>
        </mxCell>
        <mxCell id="B6tf1ZhUQxjnIPDWgsCj-8" value="Position the Annotation" style="edgeLabel;resizable=0;html=1;;align=center;verticalAlign=middle;fontSize=18;labelBackgroundColor=none;" parent="B6tf1ZhUQxjnIPDWgsCj-7" connectable="0" vertex="1">
          <mxGeometry relative="1" as="geometry">
            <mxPoint x="-20" y="-10" as="offset" />
          </mxGeometry>
        </mxCell>
        <mxCell id="B6tf1ZhUQxjnIPDWgsCj-11" value="" style="endArrow=classic;html=1;rounded=0;snapToPoint=0;" parent="1" edge="1">
          <mxGeometry relative="1" as="geometry">
            <mxPoint x="550" y="390" as="sourcePoint" />
            <mxPoint x="749.5" y="390" as="targetPoint" />
          </mxGeometry>
        </mxCell>
        <mxCell id="B6tf1ZhUQxjnIPDWgsCj-12" value="Update all Clients (Annotation)" style="edgeLabel;resizable=0;html=1;;align=center;verticalAlign=middle;fontSize=18;labelBackgroundColor=none;" parent="B6tf1ZhUQxjnIPDWgsCj-11" connectable="0" vertex="1">
          <mxGeometry relative="1" as="geometry">
            <mxPoint x="-40" y="-10" as="offset" />
          </mxGeometry>
        </mxCell>
        <mxCell id="B6tf1ZhUQxjnIPDWgsCj-13" value="" style="endArrow=classic;html=1;rounded=0;snapToPoint=0;" parent="1" edge="1">
          <mxGeometry relative="1" as="geometry">
            <mxPoint x="190" y="350" as="sourcePoint" />
            <mxPoint x="549.5" y="350" as="targetPoint" />
          </mxGeometry>
        </mxCell>
        <mxCell id="B6tf1ZhUQxjnIPDWgsCj-14" value="Add an Annotation" style="edgeLabel;resizable=0;html=1;;align=center;verticalAlign=middle;fontSize=18;labelBackgroundColor=none;" parent="B6tf1ZhUQxjnIPDWgsCj-13" connectable="0" vertex="1">
          <mxGeometry relative="1" as="geometry">
            <mxPoint x="90" y="-10" as="offset" />
          </mxGeometry>
        </mxCell>
        <mxCell id="B6tf1ZhUQxjnIPDWgsCj-18" value="" style="endArrow=classic;html=1;rounded=0;snapToPoint=0;" parent="1" edge="1">
          <mxGeometry relative="1" as="geometry">
            <mxPoint x="750" y="430" as="sourcePoint" />
            <mxPoint x="910" y="430" as="targetPoint" />
          </mxGeometry>
        </mxCell>
        <mxCell id="B6tf1ZhUQxjnIPDWgsCj-19" value="Lock Annotation" style="edgeLabel;resizable=0;html=1;;align=center;verticalAlign=middle;fontSize=18;labelBackgroundColor=none;" parent="B6tf1ZhUQxjnIPDWgsCj-18" connectable="0" vertex="1">
          <mxGeometry relative="1" as="geometry">
            <mxPoint y="-10" as="offset" />
          </mxGeometry>
        </mxCell>
        <mxCell id="z4ikS2yu3gqP8FQ_Pgj9-1" value="" style="endArrow=classic;html=1;rounded=0;snapToPoint=0;" edge="1" parent="1">
          <mxGeometry relative="1" as="geometry">
            <mxPoint x="350" y="270" as="sourcePoint" />
            <mxPoint x="350.5" y="310" as="targetPoint" />
            <Array as="points">
              <mxPoint x="410.5" y="270" />
              <mxPoint x="410.5" y="290" />
              <mxPoint x="410.5" y="310" />
            </Array>
          </mxGeometry>
        </mxCell>
        <mxCell id="z4ikS2yu3gqP8FQ_Pgj9-2" value="Calculate&lt;div&gt;Position&lt;/div&gt;" style="edgeLabel;resizable=0;html=1;;align=center;verticalAlign=middle;fontSize=18;labelBackgroundColor=none;" connectable="0" vertex="1" parent="z4ikS2yu3gqP8FQ_Pgj9-1">
          <mxGeometry relative="1" as="geometry">
            <mxPoint x="40" as="offset" />
          </mxGeometry>
        </mxCell>
        <mxCell id="z4ikS2yu3gqP8FQ_Pgj9-3" value="" style="endArrow=classic;html=1;rounded=0;snapToPoint=0;" edge="1" parent="1">
          <mxGeometry relative="1" as="geometry">
            <mxPoint x="750" y="490" as="sourcePoint" />
            <mxPoint x="910" y="490" as="targetPoint" />
          </mxGeometry>
        </mxCell>
        <mxCell id="z4ikS2yu3gqP8FQ_Pgj9-4" value="Hide Annotation" style="edgeLabel;resizable=0;html=1;;align=center;verticalAlign=middle;fontSize=18;labelBackgroundColor=none;" connectable="0" vertex="1" parent="z4ikS2yu3gqP8FQ_Pgj9-3">
          <mxGeometry relative="1" as="geometry">
            <mxPoint y="-10" as="offset" />
          </mxGeometry>
        </mxCell>
        <mxCell id="z4ikS2yu3gqP8FQ_Pgj9-5" value="" style="endArrow=classic;html=1;rounded=0;snapToPoint=0;" edge="1" parent="1">
          <mxGeometry relative="1" as="geometry">
            <mxPoint x="750" y="550" as="sourcePoint" />
            <mxPoint x="910" y="550" as="targetPoint" />
          </mxGeometry>
        </mxCell>
        <mxCell id="z4ikS2yu3gqP8FQ_Pgj9-6" value="How all Hidden" style="edgeLabel;resizable=0;html=1;;align=center;verticalAlign=middle;fontSize=18;labelBackgroundColor=none;" connectable="0" vertex="1" parent="z4ikS2yu3gqP8FQ_Pgj9-5">
          <mxGeometry relative="1" as="geometry">
            <mxPoint y="-10" as="offset" />
          </mxGeometry>
        </mxCell>
      </root>
    </mxGraphModel>
  </diagram>
</mxfile>
